<?xml version="1.0" encoding="utf-8"?>
<!-- Generator: Adobe Illustrator 19.0.0, SVG Export Plug-In . SVG Version: 6.00 Build 0)  -->
<svg version="1.1" id="Layer_1" xmlns="http://www.w3.org/2000/svg" xmlns:xlink="http://www.w3.org/1999/xlink" x="0px" y="0px"
	 viewBox="0 0 245 240" style="enable-background:new 0 0 245 240;" xml:space="preserve">
<style type="text/css">
	.st0{fill:#FFFFFF;}
</style>
<g>
	<g>
		<path class="st0" d="M227.1,33.3l-36.3,16.1c-2.2,1.2-3.5,3.5-3.5,5.9v129.8c0,2.5,1.4,4.8,3.6,5.9l36.3,15.7c2.3,1.2,5-0.4,5-3
			V36.3C232.1,33.7,229.3,32.1,227.1,33.3z M53.3,49.2l-35.2-16c-2.3-1.2-5,0.4-5,3v167.4c0,2.7,3,4.3,5.2,2.9l35.4-18.7
			c2-1.2,3.2-3.4,3.2-5.7v-127C56.8,52.7,55.5,50.4,53.3,49.2z M163.7,93.5l-37.9-21.7c-2.1-1.2-4.7-1.2-6.7,0L80.5,93.3
			c-2.1,1.2-3.4,3.5-3.4,5.9v44c0,2.4,1.3,4.7,3.4,5.9l38.6,22.2c2.1,1.2,4.7,1.2,6.7,0l37.9-22c2.1-1.2,3.4-3.5,3.4-5.9v-44
			C167.1,96.9,165.8,94.7,163.7,93.5z"/>
	</g>
</g>
</svg>
