<svg xmlns="http://www.w3.org/2000/svg" width="24" height="24" viewBox="0 0 24 24">
    <g fill="#000" fill-rule="nonzero" opacity=".8">
        <path d="M15.346 9.3c-1.646.087-3.077.59-4.239 1.73-1.174 1.15-1.71 2.56-1.563 4.307-.644-.08-1.23-.17-1.819-.22-.203-.017-.445.008-.617.106-.572.326-1.121.694-1.771 1.105.12-.545.196-1.022.333-1.481.1-.338.054-.526-.254-.745-1.975-1.41-2.808-3.518-2.185-5.689.577-2.008 1.993-3.226 3.917-3.86 2.626-.867 5.577.016 7.174 2.123.577.76.93 1.614 1.024 2.624zM7.77 8.624c.015-.397-.325-.755-.73-.767a.74.74 0 0 0-.767.72.732.732 0 0 0 .722.763c.413.01.76-.31.775-.716zm3.952-.767a.764.764 0 0 0-.742.755.744.744 0 0 0 .762.732.731.731 0 0 0 .732-.754.735.735 0 0 0-.752-.733z"/>
        <path d="M19.044 19.664c-.522-.234-1-.586-1.509-.64-.507-.053-1.04.242-1.57.297-1.616.167-3.063-.288-4.257-1.403-2.27-2.12-1.946-5.373.68-7.11 2.335-1.545 5.758-1.03 7.404 1.113 1.436 1.87 1.267 4.353-.486 5.924-.507.455-.69.83-.364 1.429.06.11.067.25.102.39zm-5.933-5.801a.617.617 0 0 0 .618-.593.62.62 0 0 0-.613-.646.627.627 0 0 0-.62.641c.01.33.286.597.615.598zm3.825-1.238a.616.616 0 0 0-.61.593.607.607 0 0 0 .602.64.6.6 0 0 0 .608-.587.613.613 0 0 0-.6-.646z"/>
    </g>
</svg>
