<svg xmlns="http://www.w3.org/2000/svg" width="24" height="24" viewBox="0 0 24 24">
    <g fill="#000" fill-rule="nonzero" opacity=".8">
        <path d="M16.344 12.382c-.288-.027-.55-.19-.359-.528.192-.338.545-1.32-.134-2.011-.68-.695-2.166-.432-3.218.016-1.049.448-.992.136-.96-.171.035-.324.601-2.133-1.13-2.352-2.268-.285-5.178 2.595-6.206 4.255-1.553 2.507-1.308 4.203-1.308 4.203h.011c.186 2.34 3.547 4.205 7.665 4.205 3.54 0 6.524-1.38 7.406-3.256 0 0 .002-.009.01-.023.092-.202.162-.406.205-.62.124-.503.219-1.233-.013-1.953-.413-1.272-1.68-1.737-1.969-1.765zm-6.149 6.593c-2.932 0-5.31-1.615-5.31-3.607 0-1.992 2.376-3.608 5.31-3.608 2.932 0 5.31 1.616 5.31 3.608 0 1.994-2.378 3.607-5.31 3.607zm7.22-7.995c.054.025.11.036.167.036a.43.43 0 0 0 .396-.271c.111-.269.168-.554.168-.85 0-1.2-.952-2.177-2.123-2.177-.286 0-.563.058-.825.171a.449.449 0 0 0-.23.581.43.43 0 0 0 .567.236 1.25 1.25 0 0 1 .49-.103c.697 0 1.26.581 1.26 1.292 0 .174-.032.343-.1.504a.444.444 0 0 0 .23.58z"/>
        <path d="M15.999 5.001c-.483 0-.96.072-1.419.21a.668.668 0 0 0-.437.825c.103.351.462.55.804.448.34-.102.693-.155 1.052-.155 2.03 0 3.684 1.696 3.684 3.78 0 .373-.054.743-.156 1.098a.666.666 0 0 0 .431.827.653.653 0 0 0 .81-.443c.14-.478.212-.977.212-1.483-.002-2.816-2.236-5.107-4.981-5.107zm-6.295 8.076c-1.564 0-2.832 1.137-2.832 2.542 0 1.406 1.268 2.543 2.832 2.543 1.564 0 2.832-1.137 2.832-2.543 0-1.405-1.268-2.542-2.832-2.542zM8.78 17.27c-.547 0-.992-.456-.992-1.018s.445-1.018.992-1.018c.548 0 .993.456.993 1.018s-.445 1.018-.993 1.018zm1.856-1.834c-.119.213-.359.301-.534.196-.176-.102-.219-.36-.1-.573.119-.213.359-.301.534-.196.175.105.218.362.1.573z"/>
    </g>
</svg>
